<?xml version="1.0" encoding="utf-8"?><svg viewBox="0 0 29 29" xmlns="http://www.w3.org/2000/svg" xmlns:xlink="http://www.w3.org/1999/xlink"><style>:root>svg{display:none}:root>svg:target{display:block}</style><svg fill="none" viewBox="0 0 29 29" id="loupe" xmlns="http://www.w3.org/2000/svg"><g clip-path="url(#aa)" fill="#fff"><path d="M12.771 0C5.729 0 0 5.73 0 12.771c0 7.042 5.73 12.771 12.771 12.771 7.042 0 12.771-5.729 12.771-12.771C25.542 5.729 19.813 0 12.771 0zm0 23.184c-5.742 0-10.413-4.671-10.413-10.413S7.029 2.358 12.77 2.358 23.184 7.029 23.184 12.77s-4.671 10.413-10.413 10.413z"/><path d="M28.654 26.988l-6.758-6.76a1.178 1.178 0 10-1.667 1.668l6.759 6.759a1.175 1.175 0 001.666 0 1.178 1.178 0 000-1.667z"/></g><defs><clipPath id="aa"><path fill="#fff" d="M0 0h29v29H0z"/></clipPath></defs></svg></svg>