<?xml version="1.0" encoding="utf-8"?><svg viewBox="0 0 473.19 473.19" xmlns="http://www.w3.org/2000/svg" xmlns:xlink="http://www.w3.org/1999/xlink"><style>:root>svg{display:none}:root>svg:target{display:block}</style><svg viewBox="0 0 473.194 473.194" id="actor" xmlns="http://www.w3.org/2000/svg"><path fill="currentColor" d="M464.653 167.757a11.993 11.993 0 00-5.969-7.633 12.023 12.023 0 00-9.65-.738c-27.88 9.795-70.896 16.098-119.276 16.098-11.762 0-23.098-.449-34.089-1.156-5.683 25.676-14.764 49.252-26.363 70.016.564-.023 1.103-.115 1.672-.115 15.034 0 27.218-1.254 27.218 8.873 0 10.127-12.185 27.803-27.218 27.803-8.757 0-16.467-2.834-21.442-7.162-15.025 18.654-32.578 33.363-51.909 43.09 21.795 73.361 72.751 124.824 132.131 124.824 79.219 0 143.437-91.584 143.437-204.559-.001-24.37-3.044-47.69-8.542-69.341zm-77.733 214.17a3.202 3.202 0 01-2.11 2.303 3.184 3.184 0 01-3.066-.586c-11.174-9.389-30.182-15.627-51.985-15.627-21.805 0-40.813 6.238-51.986 15.627a3.224 3.224 0 01-3.066.586 3.214 3.214 0 01-2.11-2.303c-.925-3.936-1.494-7.994-1.494-12.215 0-32.395 26.263-58.656 58.657-58.656 32.394 0 58.655 26.262 58.655 58.656-.002 4.221-.571 8.28-1.495 12.215zm1.617-101.023c-15.034 0-27.218-17.676-27.218-27.803 0-10.127 12.185-8.873 27.218-8.873s27.218 8.211 27.218 18.338c-.001 10.127-12.185 18.338-27.218 18.338z"/><path fill="currentColor" d="M286.874 109.925c0-24.367-3.043-47.688-8.541-69.338a11.988 11.988 0 00-11.638-9.049 11.94 11.94 0 00-3.981.678c-27.88 9.795-70.895 16.096-119.276 16.096-48.382 0-91.397-6.301-119.277-16.096a11.828 11.828 0 00-3.966-.678 12.08 12.08 0 00-5.685 1.424 12.019 12.019 0 00-5.969 7.625C3.043 62.238 0 85.558 0 109.925c0 112.977 64.217 204.559 143.438 204.559 79.219 0 143.436-91.582 143.436-204.559zM57.439 135.349c0-10.129 12.185-18.338 27.219-18.338 15.033 0 27.218 17.674 27.218 27.803 0 10.127-12.185 8.873-27.218 8.873-15.034 0-27.219-8.211-27.219-18.338zm85.999 140.463c-32.395 0-58.656-26.262-58.656-58.654 0-4.221.569-8.281 1.493-12.217a3.223 3.223 0 012.11-2.303 3.222 3.222 0 013.066.586c11.174 9.389 30.182 15.627 51.986 15.627s40.812-6.238 51.985-15.627a3.185 3.185 0 013.066-.586 3.207 3.207 0 012.11 2.303c.924 3.936 1.494 7.996 1.494 12.217.001 32.392-26.261 58.654-58.654 58.654zm31.56-130.998c0-10.129 12.185-27.803 27.219-27.803 15.033 0 27.218 8.209 27.218 18.338 0 10.127-12.185 18.338-27.218 18.338-15.034 0-27.219 1.254-27.219-8.873z"/></svg><svg fill="none" viewBox="0 0 24 24" id="chevron" xmlns="http://www.w3.org/2000/svg"><path fill-rule="evenodd" clip-rule="evenodd" d="M8.293 4.293a1 1 0 011.414 0l7 7a1 1 0 010 1.414l-7 7a1 1 0 01-1.414-1.414L14.586 12 8.293 5.707a1 1 0 010-1.414z" fill="currentColor"/></svg><svg viewBox="0 0 24 24" id="film" xmlns="http://www.w3.org/2000/svg"><path fill-rule="evenodd" clip-rule="evenodd" d="M16.944 6.104c-.067-.137-.04-.335.012-.733l.292-2.188a.17.17 0 01.125-.142 1.375 1.375 0 011.684.973l.259.966.02.072c.072.27.108.406.083.523a.5.5 0 01-.154.268c-.09.08-.225.116-.495.189l-.073.02-.74.198c-.388.103-.582.155-.725.106a.5.5 0 01-.288-.252zm-1.658-2.086c.067.136.04.335-.012.732l-.236 1.772c-.026.19-.039.286-.08.365a.5.5 0 01-.154.175c-.073.052-.166.077-.352.127l-.125.033c-.387.104-.581.156-.725.107a.5.5 0 01-.288-.253c-.067-.136-.04-.335.013-.732l.236-1.772c.025-.19.038-.286.08-.365a.5.5 0 01.154-.175c.073-.052.166-.077.352-.127l.125-.033c.387-.104.58-.156.725-.107a.5.5 0 01.287.253zM9.933 5.545l-.236 1.771c-.053.398-.08.597-.012.733a.5.5 0 00.287.253c.144.048.338-.003.725-.107l.125-.034c.186-.05.28-.075.352-.126a.5.5 0 00.154-.175c.042-.079.055-.175.08-.366l.236-1.771c.053-.398.08-.596.013-.733a.5.5 0 00-.288-.252c-.144-.05-.338.003-.725.106l-.125.034c-.186.05-.28.075-.352.126a.5.5 0 00-.154.175c-.041.08-.054.175-.08.366zm-1.906.418c.067.136.04.335-.013.732l-.236 1.772c-.025.191-.038.287-.08.365a.5.5 0 01-.153.176c-.073.051-.166.076-.353.126l-.722.193h11.433c.259 0 .504 0 .71.017.224.019.48.062.735.193.358.184.65.477.832.838.13.257.173.514.19.74a8.8 8.8 0 01.018.715v4.363c0 .543 0 1.004-.03 1.382-.033.396-.103.78-.289 1.146a2.931 2.931 0 01-1.276 1.286c-.363.186-.744.257-1.138.29-.375.03-.833.03-1.372.03h-7.79c-.54 0-.997 0-1.372-.03-.394-.033-.775-.104-1.139-.29a2.931 2.931 0 01-1.276-1.286c-.185-.366-.255-.75-.288-1.146-.03-.378-.03-.839-.03-1.382V9.327h.008a6.404 6.404 0 01-.07-.253L4.305 9l-.259-.965A1.375 1.375 0 015.02 6.35l1.995-.534c.388-.104.582-.156.725-.107a.5.5 0 01.288.253zm9.846 5.155c.3 0 .47 0 .595.011a.801.801 0 01.085.01c.014.01.026.022.036.036.002.013.006.04.01.086.01.126.011.298.011.599v4.298c0 .587 0 .975-.025 1.27-.023.287-.063.409-.1.48-.11.217-.284.393-.5.503-.07.037-.191.077-.475.1-.294.025-.678.026-1.262.026h-7.72c-.584 0-.968 0-1.263-.025-.283-.024-.404-.064-.475-.1a1.147 1.147 0 01-.5-.504c-.036-.071-.077-.193-.1-.48-.024-.295-.024-.683-.024-1.27v-5.04h11.707z" fill="currentColor"/></svg><svg viewBox="0 0 18 18" id="filter" xmlns="http://www.w3.org/2000/svg"><path fill="currentColor" fill-rule="evenodd" d="M5.995 10.3A2.7 2.7 0 018.504 12H17v2H8.504a2.7 2.7 0 01-5.018 0H1v-2h2.486a2.7 2.7 0 012.509-1.7zm0 1.7a1 1 0 100 2 1 1 0 000-2zm5.997-8.7A2.7 2.7 0 0114.5 5H17v2h-2.5a2.7 2.7 0 01-5.017 0H1V5h8.483a2.7 2.7 0 012.509-1.7zm0 1.7a1 1 0 100 2 1 1 0 000-2z"/></svg><svg viewBox="0 0 24 24" id="home" xmlns="http://www.w3.org/2000/svg"><path d="M11.479 4.073l-.118.037c-.24.082-.403.192-.765.488L6.062 8.375c-.264.222-.358.31-.482.455-.046.054-.09.109-.13.166-.166.238-.29.505-.365.787-.067.25-.083.46-.085.86v8.039c.002.27.02.42.131.644.116.232.3.421.527.54.154.08.3.114.456.128l.088.005h.049L9.188 20c.205-.002.335-.02.53-.121a1.098 1.098 0 00.588-.902l.004-.072V15.43c.002-.587.022-.774.053-.836a.489.489 0 01.211-.216l.023-.01c.08-.027.275-.04.857-.043h1.224c.527.004.69.023.748.053a.49.49 0 01.211.216c.034.067.05.239.053.9v3.36c.002.207.019.34.118.539.105.21.271.38.476.486.139.073.27.105.406.116l.07.004 2.95.001c.265-.002.412-.02.631-.134a1.221 1.221 0 00.653-1.005l.004-.067.002-.073V10.63c-.003-.441-.018-.596-.085-.846a2.492 2.492 0 00-.495-.953l-.06-.069c-.11-.12-.222-.22-.491-.444l-4.465-3.719c-.417-.342-.57-.435-.882-.525a1.89 1.89 0 00-1.043 0z" fill="currentColor"/></svg><svg fill="none" viewBox="0 0 29 29" id="loupe" xmlns="http://www.w3.org/2000/svg"><g clip-path="url(#fa)" fill="#fff"><path d="M12.771 0C5.729 0 0 5.73 0 12.771c0 7.042 5.73 12.771 12.771 12.771 7.042 0 12.771-5.729 12.771-12.771C25.542 5.729 19.813 0 12.771 0zm0 23.184c-5.742 0-10.413-4.671-10.413-10.413S7.029 2.358 12.77 2.358 23.184 7.029 23.184 12.77s-4.671 10.413-10.413 10.413z"/><path d="M28.654 26.988l-6.758-6.76a1.178 1.178 0 10-1.667 1.668l6.759 6.759a1.175 1.175 0 001.666 0 1.178 1.178 0 000-1.667z"/></g><defs><clipPath id="fa"><path fill="#fff" d="M0 0h29v29H0z"/></clipPath></defs></svg><svg viewBox="0 0 24 25" id="news" xmlns="http://www.w3.org/2000/svg"><path fill-rule="evenodd" clip-rule="evenodd" d="M12.5 9.494a.75.75 0 01-.75.75h-4.5a.75.75 0 110-1.5h4.5a.75.75 0 01.75.75zm0 3a.75.75 0 01-.75.75h-4.5a.75.75 0 110-1.5h4.5a.75.75 0 01.75.75zm-6 3c0 .414.336.75.75.75h1.5a.75.75 0 100-1.5h-1.5a.75.75 0 00-.75.75z" fill="currentColor"/><path d="M6.5 6.494h7v-2h-7v2zM5 17.994v-10H3v10h2zm1.5 3.5H18v-2H6.5v2zm8.5-13.5v1.5h2v-1.5h-2zm-12 10a3.5 3.5 0 003.5 3.5v-2a1.5 1.5 0 01-1.5-1.5H3zm10.5-11.5a1.5 1.5 0 011.5 1.5h2a3.5 3.5 0 00-3.5-3.5v2zm-7-2a3.5 3.5 0 00-3.5 3.5h2a1.5 1.5 0 011.5-1.5v-2z" fill="currentColor"/><path d="M16 10.494v-1h-1v1h1zm0 1h1.5v-2H16v2zm1 7v-8h-2v8h2zm2-5.5v5.501h2v-5.502h-2zm0 5.501a.999.999 0 01-1 1v2a3 3 0 003-3h-2zm-4 0a3 3 0 003 3v-2a1 1 0 01-1-1h-2zm2.5-7a1.5 1.5 0 011.5 1.498h2a3.5 3.5 0 00-3.5-3.499v2z" fill="currentColor"/></svg><svg viewBox="0 0 24 24" id="play" xmlns="http://www.w3.org/2000/svg"><path fill-rule="evenodd" clip-rule="evenodd" d="M7 17.316l8.901-4.818L7 7.68v9.636zm11.478-3.939a1 1 0 000-1.759L6.476 5.122A1 1 0 005 6.002v12.992a1 1 0 001.476.88l12.002-6.497z" fill="currentColor"/></svg><svg viewBox="0 0 24 24" id="serials" xmlns="http://www.w3.org/2000/svg"><path fill-rule="evenodd" clip-rule="evenodd" d="M17.3 15.75a10.27 10.27 0 01-.025.727 3.32 3.32 0 01-.323 1.248 3.229 3.229 0 01-1.401 1.42 3.2 3.2 0 01-1.23.329 13.55 13.55 0 01-1.061.026H7.04c-.369 0-.742 0-1.06-.026a3.2 3.2 0 01-1.23-.328 3.228 3.228 0 01-1.402-1.42 3.317 3.317 0 01-.323-1.249C3 16.155 3 15.777 3 15.402v-3.555c0-.374 0-.752.026-1.075.029-.359.098-.8.323-1.248a3.228 3.228 0 011.401-1.42 3.2 3.2 0 011.23-.329c.22-.018.466-.023.719-.025V7.6c-.002-.305-.003-.717.085-1.095a3.228 3.228 0 012.386-2.42c.373-.089.779-.087 1.08-.086h5.925c.503 0 .978 0 1.378.033.436.036.932.12 1.427.376.696.36 1.262.933 1.616 1.639.253.501.335 1.004.37 1.446C21 7.9 21 8.381 21 8.891v3.21c.001.346.003.814-.11 1.24a3.228 3.228 0 01-2.266 2.298c-.42.114-.88.112-1.222.111H17.3zm0-1.75c.46 0 .689 0 .877-.052a1.48 1.48 0 001.046-1.06c.05-.191.05-.424.05-.889V8.95c0-1.12 0-1.68-.215-2.108a1.986 1.986 0 00-.862-.874c-.422-.218-.974-.218-2.079-.218H10.34c-.404 0-.607 0-.774.04a1.498 1.498 0 00-1.101 1.117c-.04.17-.04.374-.04.784h5.326c1.243 0 1.865 0 2.34.246.417.215.756.56.97.983.24.481.24 1.111.24 2.372V14zm-1.725-1.7c0-.98 0-1.47-.188-1.845a1.738 1.738 0 00-.754-.765c-.37-.19-.853-.19-1.82-.19h-5.72c-.829 0-1.243 0-1.56.163a1.49 1.49 0 00-.646.655c-.161.321-.161.741-.161 1.582v3.45c0 .84 0 1.26.161 1.58.142.283.368.512.647.656.316.164.73.164 1.559.164h6.115c.829 0 1.243 0 1.56-.164a1.49 1.49 0 00.646-.655c.161-.321.161-.741.161-1.581V12.3z" fill="currentColor"/></svg></svg>